<svg xmlns="http://www.w3.org/2000/svg" viewBox="0 0 51.57 51.57"><path d="M40.12,12c-.33-2.55-2.8-4.93-6.2-5.69l-.63-.12A11,11,0,0,0,26,3.84,10.94,10.94,0,0,0,18.6,6.23h0L18,6.34a8,8,0,0,0-6,4.73C8.53,13,6.51,16.49,7.29,19.94c1,4.33,6,6.89,11.14,5.73l.57-.14a18.17,18.17,0,0,0,6.73,1.25,18.35,18.35,0,0,0,5.88-.94,12.35,12.35,0,0,0,1.53.46c5.18,1.16,10.16-1.4,11.14-5.73C45,17.31,43.25,14,40.12,12Z" fill="#040000"/><path d="M23.65,47.73a1.36,1.36,0,0,1-.56-.11,1.5,1.5,0,0,1-.9-1.73l1.92-8.31H17.62a1.51,1.51,0,0,1-1.39-.93A1.5,1.5,0,0,1,16.56,35l6.58-6.57a1.5,1.5,0,0,1,2.42,1.69l-2,4.44h6.16A1.51,1.51,0,0,1,31,36.85L24.94,47A1.51,1.51,0,0,1,23.65,47.73Z" fill="#040000"/></svg>